<svg width="506" xmlns="http://www.w3.org/2000/svg" height="101" fill="none"><g style="fill: rgb(0, 0, 0);"><g clip-path="url(#a)" style="fill: rgb(0, 0, 0);"><defs><clipPath id="a" class="svg-def" transform="matrix(1.000000, 0.000000, 0.000000, 1.000000, 0.000000, 0.000000)"><rect width="506" height="101" fill="#fff"/></clipPath></defs><path d="M0.000,77.581L0.000,0.333L7.325,0.333L7.325,33.741L52.498,33.741L52.498,0.333L59.712,0.333L59.712,77.581L52.498,77.581L52.498,39.956L7.325,39.956L7.325,77.581L0.000,77.581ZZ" style="fill: rgb(139, 145, 243); fill-opacity: 1;" class="fills"/><path d="M78.840,101.000L88.829,76.139L67.186,24.196L74.733,24.196L88.940,59.379C89.754,61.525,90.901,64.374,92.380,67.925C92.602,67.407,92.824,66.834,93.046,66.205C93.268,65.576,93.490,65.003,93.712,64.485C94.156,63.523,94.545,62.616,94.878,61.765C95.211,60.915,95.525,60.082,95.821,59.268L109.140,24.196L116.354,24.196L86.054,101.000L78.840,101.000ZZ" style="fill: rgb(139, 145, 243); fill-opacity: 1;" class="fills"/><path d="M123.679,101.000L123.679,24.196L130.560,24.196L130.560,33.963C132.336,30.633,134.908,27.914,138.274,25.805C141.641,23.696,145.396,22.642,149.540,22.642C154.497,22.642,158.807,23.844,162.470,26.249C166.132,28.654,168.944,31.983,170.905,36.238C172.866,40.493,173.846,45.321,173.846,50.722C173.846,56.123,172.829,61.081,170.794,65.372C168.759,69.664,165.892,73.031,162.192,75.473C158.493,77.914,154.275,79.135,149.540,79.135C145.544,79.135,141.863,78.173,138.496,76.249C135.130,74.326,132.484,71.514,130.560,67.814L130.560,101.000L123.679,101.000ZZM148.541,73.586C152.166,73.586,155.367,72.624,158.141,70.700C160.916,68.776,163.043,66.094,164.523,62.653C166.003,59.213,166.743,55.236,166.743,50.722C166.743,46.208,165.984,42.472,164.468,39.068C162.951,35.665,160.823,33.019,158.086,31.132C155.348,29.246,152.166,28.302,148.541,28.302C144.915,28.302,141.826,29.227,139.051,31.077C136.276,32.927,134.112,35.553,132.558,38.957C131.004,42.361,130.228,46.282,130.228,50.722C130.228,55.162,131.004,59.213,132.558,62.653C134.112,66.094,136.258,68.776,138.996,70.700C141.733,72.624,144.915,73.586,148.541,73.586ZZ" style="fill: rgb(139, 145, 243); fill-opacity: 1;" class="fills"/><path d="M206.699,79.135C201.667,79.135,197.246,78.025,193.435,75.805C189.625,73.586,186.665,70.330,184.556,66.039C182.447,61.747,181.393,56.604,181.393,50.611C181.393,45.284,182.484,40.493,184.667,36.238C186.850,31.983,189.828,28.654,193.602,26.249C197.375,23.844,201.593,22.642,206.255,22.642C211.286,22.642,215.578,23.789,219.129,26.082C222.681,28.376,225.382,31.613,227.232,35.794C229.081,39.975,230.006,44.840,230.006,50.389L230.006,51.832L188.274,51.832C188.274,56.419,189.051,60.341,190.605,63.597C192.159,66.852,194.342,69.331,197.153,71.033C199.965,72.735,203.184,73.586,206.810,73.586C211.101,73.586,214.671,72.568,217.520,70.534C220.369,68.499,222.126,65.447,222.792,61.377L229.673,61.377C229.155,64.781,227.953,67.814,226.066,70.478C224.179,73.142,221.590,75.251,218.297,76.804C215.004,78.358,211.138,79.135,206.699,79.135ZZM222.681,46.615C222.607,41.066,221.127,36.626,218.241,33.297C215.356,29.967,211.360,28.302,206.255,28.302C201.149,28.302,197.209,30.023,193.990,33.463C190.772,36.904,188.940,41.288,188.496,46.615L222.681,46.615ZZ" style="fill: rgb(139, 145, 243); fill-opacity: 1;" class="fills"/><path d="M240.661,77.581L240.661,24.196L247.542,24.196L247.542,34.851C249.022,31.299,251.335,28.376,254.479,26.082C257.624,23.789,261.305,22.642,265.523,22.642C266.559,22.642,267.557,22.716,268.519,22.864L268.519,29.523C267.261,29.375,266.152,29.301,265.190,29.301C261.638,29.301,258.530,30.097,255.867,31.687C253.203,33.278,251.150,35.553,249.707,38.513C248.264,41.473,247.542,44.914,247.542,48.835L247.542,77.581L240.661,77.581ZZ" style="fill: rgb(139, 145, 243); fill-opacity: 1;" class="fills"/><path d="M285.594,76.083L285.279,77.581L263.507,77.581L263.821,76.083C269.833,75.436,272.293,73.715,273.255,69.220L285.483,11.598C286.777,5.697,284.946,4.736,278.731,6.012L279.045,4.514L292.345,0.000L293.844,0.000L279.138,69.202C278.176,73.715,279.785,75.417,285.594,76.083ZL285.594,76.083ZZ" style="fill: rgb(139, 145, 243); fill-opacity: 1;" class="fills"/><path d="M310.122,76.083L309.808,77.581L288.036,77.581L288.350,76.083C294.362,75.436,296.822,73.715,297.784,69.220L305.183,34.129C306.478,28.117,304.758,27.266,298.432,28.543L298.746,27.044L312.046,22.531L313.545,22.531L303.667,69.202C302.705,73.715,304.314,75.417,310.122,76.083ZL310.122,76.083ZZM313.767,3.126C316.671,3.126,318.595,5.383,318.280,8.269C317.855,11.173,315.283,13.319,312.490,13.319C309.494,13.319,307.440,11.173,307.884,8.269C308.199,5.364,310.788,3.126,313.767,3.126ZL313.767,3.126ZZ" style="fill: rgb(139, 145, 243); fill-opacity: 1;" class="fills"/><path d="M347.618,93.064L353.593,65.465C349.838,73.623,342.013,79.191,333.745,79.191C320.444,79.191,314.210,66.630,318.188,47.855C320.981,34.222,333.208,22.531,347.692,22.531C354.351,22.531,359.808,25.527,362.065,29.930L367.115,22.531L368.614,22.531L353.519,93.027C352.446,97.855,356.312,98.817,360.178,99.465L359.864,100.963L334.873,100.963L335.187,99.465C342.383,98.817,346.564,97.855,347.618,93.064ZL347.618,93.064ZZM337.296,75.232C344.159,75.232,351.022,69.331,354.240,62.246L358.754,41.103C359.938,33.482,356.294,25.546,345.879,25.546C335.465,25.546,327.326,34.555,324.643,47.744C321.203,63.948,326.031,75.214,337.296,75.232ZL337.296,75.232ZZ" style="fill: rgb(139, 145, 243); fill-opacity: 1;" class="fills"/><path d="M443.050,76.083L442.736,77.581L420.963,77.581L421.278,76.083C427.290,75.436,429.750,73.715,430.712,69.220L438.111,34.129C439.406,28.117,437.686,27.266,431.359,28.543L431.674,27.044L444.974,22.531L446.472,22.531L436.594,69.202C435.632,73.715,437.242,75.417,443.050,76.083ZL443.050,76.083ZZM446.694,3.126C449.599,3.126,451.522,5.383,451.208,8.269C450.782,11.173,448.211,13.319,445.418,13.319C442.421,13.319,440.368,11.173,440.812,8.269C441.126,5.364,443.716,3.126,446.694,3.126ZL446.694,3.126ZZ" style="fill: rgb(139, 145, 243); fill-opacity: 1;" class="fills"/><path d="M412.140,69.109L417.079,45.543L421.944,22.568L420.445,22.568L407.145,27.081L406.831,28.580C413.046,27.285,414.877,28.154,413.583,34.166L407.256,64.096C400.282,70.644,395.343,74.511,389.331,74.511C381.932,74.511,378.066,69.461,379.897,60.785L388.055,22.586L386.557,22.586L373.146,27.100L372.831,28.598C379.157,27.303,380.878,28.173,379.694,34.185L373.904,61.654C371.647,71.847,376.808,79.246,386.353,79.246C392.680,79.246,398.248,75.713,406.812,66.519L406.405,68.462L406.405,68.554L406.387,68.554L404.463,77.655L418.281,77.655L418.596,76.027C412.806,75.380,411.196,73.660,412.140,69.109ZL412.140,69.109ZZ" style="fill: rgb(139, 145, 243); fill-opacity: 1;" class="fills"/><path d="M501.060,20.552L505.389,0.018L503.891,0.018L490.590,4.532L490.276,6.030C496.491,4.736,498.323,5.716,497.028,11.617L493.273,29.098C490.905,25.120,485.762,22.549,479.750,22.549C465.155,22.549,453.039,34.129,449.931,48.835C446.176,66.649,452.299,79.191,465.710,79.191C474.072,79.191,482.026,73.512,485.670,65.354L484.708,70.034L483.099,77.581L496.917,77.470L497.231,75.972C491.441,75.324,489.832,73.604,490.794,69.109L501.060,20.552ZL501.060,20.552ZZM486.299,62.135C483.080,69.331,476.217,75.232,469.243,75.232C457.978,75.232,453.150,63.967,456.369,48.724C459.365,34.555,467.949,25.546,477.938,25.546C488.593,25.546,492.144,34.000,490.738,41.695L490.239,44.026L486.299,62.135ZL486.299,62.135ZZ" style="fill: rgb(139, 145, 243); fill-opacity: 1;" class="fills"/></g></g></svg>