<svg width="192" xmlns="http://www.w3.org/2000/svg" height="183" fill="none"><g style="fill: rgb(0, 0, 0);"><path d="M189.307,114.771C177.286,162.986,128.446,192.329,80.220,180.306C32.015,168.285,2.669,119.449,14.696,71.238C26.712,23.018,75.551,-6.327,123.762,5.693C171.984,17.713,201.329,66.555,189.307,114.771ZL189.307,114.771ZM141.690,80.177C143.482,68.200,134.362,61.762,121.892,57.467L125.938,41.243L116.061,38.782L112.122,54.579C109.526,53.932,106.859,53.321,104.209,52.717L108.176,36.816L98.305,34.355L94.257,50.573C92.108,50.084,89.998,49.601,87.950,49.091L87.962,49.040L74.341,45.639L71.713,56.187C71.713,56.187,79.041,57.867,78.887,57.970C82.887,58.969,83.610,61.616,83.490,63.714L78.882,82.197C79.157,82.267,79.514,82.368,79.908,82.527C79.579,82.445,79.228,82.356,78.864,82.269L72.405,108.160C71.917,109.375,70.676,111.199,67.879,110.506C67.978,110.650,60.701,108.715,60.701,108.715L55.797,120.020L68.650,123.224C71.041,123.823,73.385,124.451,75.692,125.041L71.605,141.451L81.471,143.912L85.518,127.676C88.214,128.407,90.829,129.082,93.390,129.718L89.356,145.878L99.233,148.338L103.320,131.959C120.163,135.146,132.827,133.861,138.158,118.629C142.453,106.365,137.944,99.291,129.083,94.678C135.537,93.190,140.398,88.946,141.690,80.177ZL141.690,80.177ZM119.124,111.818C116.071,124.082,95.420,117.453,88.725,115.790L94.149,94.050C100.844,95.721,122.314,99.028,119.124,111.818ZM122.178,79.999C119.394,91.155,102.206,85.487,96.630,84.098L101.548,64.380C107.123,65.770,125.079,68.364,122.178,79.999ZL122.178,79.999Z" style="fill: rgb(139, 145, 243); fill-opacity: 1;" class="fills" xml:space="preserve"/></g></svg>