<svg width="111" xmlns="http://www.w3.org/2000/svg" height="87" id="screenshot-4983e30e-a60e-8093-8006-10ecf4cd1dda" fill="none" version="1.1"><g id="shape-4983e30e-a60e-8093-8006-10ecf4cd1dda" xml:space="preserve" style="fill: rgb(0, 0, 0);"><style id="shape-4983e30e-a60e-8093-8006-10ecf4d16302">#shape-4983e30e-a60e-8093-8006-10ecf4cd1dda{ .st0{fill:url(#SVGID_1_);}
	.st1{fill:url(#SVGID_2_);}
	.st2{fill:url(#SVGID_3_);} }</style><g id="shape-4983e30e-a60e-8093-8006-10ecf4d23c44"><g class="fills" id="fills-4983e30e-a60e-8093-8006-10ecf4d23c44"><path d="M18.034,66.401C18.704,65.731,19.625,65.341,20.601,65.341L109.180,65.341C110.799,65.341,111.608,67.295,110.464,68.439L92.966,85.939C92.296,86.609,91.375,87.000,90.399,87.000L1.820,87.000C0.201,87.000,-0.608,85.046,0.536,83.902L18.034,66.401ZZ" class="st0" style="fill: rgb(139, 145, 243); fill-opacity: 1;"/></g></g><g id="shape-4983e30e-a60e-8093-8006-10ecf4d24821"><g class="fills" id="fills-4983e30e-a60e-8093-8006-10ecf4d24821"><path d="M18.034,1.061C18.732,0.391,19.653,0.000,20.601,0.000L109.180,0.000C110.799,0.000,111.608,1.954,110.464,3.098L92.966,20.599C92.296,21.269,91.375,21.659,90.399,21.659L1.820,21.659C0.201,21.659,-0.608,19.705,0.536,18.561L18.034,1.061ZZ" class="st1" style="fill: rgb(139, 145, 243); fill-opacity: 1;"/></g></g><g id="shape-4983e30e-a60e-8093-8006-10ecf4d2acf9"><g class="fills" id="fills-4983e30e-a60e-8093-8006-10ecf4d2acf9"><path d="M92.966,33.522C92.296,32.852,91.375,32.461,90.399,32.461L1.820,32.461C0.201,32.461,-0.608,34.415,0.536,35.559L18.034,53.060C18.704,53.730,19.625,54.120,20.601,54.120L109.180,54.120C110.799,54.120,111.608,52.167,110.464,51.022L92.966,33.522ZZ" class="st2" style="fill: rgb(139, 145, 243); fill-opacity: 1;"/></g></g></g></svg>