<svg width="150" xmlns="http://www.w3.org/2000/svg" height="192" id="screenshot-84c7fa00-830f-807c-8006-1039c604b5cd" fill="none" version="1.1"><g id="shape-84c7fa00-830f-807c-8006-1039c604b5cd" xml:space="preserve" style="fill: rgb(0, 0, 0);"><style id="shape-84c7fa00-830f-807c-8006-1039c6072227">#shape-84c7fa00-830f-807c-8006-1039c604b5cd{ .st0{fill-rule:evenodd;clip-rule:evenodd;fill:#4DA2FF;} }</style><g id="shape-84c7fa00-830f-807c-8006-1039c6082f07"><g class="fills" id="fills-84c7fa00-830f-807c-8006-1039c6082f07"><path d="M120.050,80.054C127.850,89.867,132.550,102.333,132.550,115.851C132.550,129.368,127.750,142.185,119.700,152.098L119.000,152.949L118.800,151.848C118.650,150.947,118.450,149.995,118.250,149.044C114.250,131.371,101.150,116.201,79.550,103.885C65.000,95.625,56.650,85.662,54.450,74.347C53.050,67.037,54.100,59.678,56.100,53.369C58.150,47.061,61.150,41.804,63.700,38.650L72.100,28.387C73.550,26.585,76.350,26.585,77.800,28.387L120.050,80.054ZL120.050,80.054ZZM133.300,69.791L77.100,1.001C76.050,-0.300,74.000,-0.300,72.950,1.001L16.700,69.791L16.500,70.041C6.200,82.908,0.000,99.229,0.000,117.002C0.000,158.406,33.600,192.000,75.000,192.000C116.400,192.000,150.000,158.406,150.000,117.002C150.000,99.229,143.800,82.908,133.450,70.041L133.300,69.791ZL133.300,69.791ZZM30.150,79.854L35.150,73.696L35.300,74.847C35.400,75.749,35.550,76.650,35.750,77.551C39.000,94.623,50.650,108.892,70.050,119.906C86.950,129.519,96.750,140.583,99.600,152.749C100.800,157.805,101.000,162.812,100.500,167.168L100.450,167.418L100.200,167.518C92.600,171.223,84.000,173.326,74.950,173.326C43.200,173.326,17.450,147.592,17.450,115.851C17.450,102.233,22.200,89.667,30.150,79.854ZL30.150,79.854ZZ" class="st0" style="fill: rgb(139, 145, 243); fill-opacity: 1;"/></g></g></g></svg>