<svg width="170" xmlns="http://www.w3.org/2000/svg" height="148" fill="none"><g style="fill: rgb(0, 0, 0);"><path d="M95.756,72.579L95.756,72.579ZC95.155,72.624,92.049,72.810,85.123,72.810C79.613,72.810,75.702,72.644,74.330,72.579L74.330,72.579C53.039,71.642,37.147,67.933,37.147,63.492C37.147,59.051,53.039,55.346,74.330,54.394L74.330,68.885C75.722,68.985,79.709,69.221,85.218,69.221C91.829,69.221,95.139,68.945,95.735,68.890L95.735,54.404C116.981,55.352,132.838,59.061,132.838,63.492C132.838,67.923,116.986,71.632,95.756,72.579ZL95.756,72.579ZL95.756,72.579ZM95.756,52.905L95.756,39.938L125.405,39.938L125.405,20.165L44.680,20.165L44.680,39.938L74.325,39.938L74.325,52.900C50.229,54.008,32.109,58.785,32.109,64.509C32.109,70.233,50.229,75.005,74.325,76.118L74.325,117.670L95.751,117.670L95.751,76.103C119.791,74.995,137.881,70.223,137.881,64.504C137.881,58.785,119.806,54.013,95.756,52.905ZL95.756,52.905ZM95.756,52.905L95.756,52.905Z" style="fill: rgb(139, 145, 243); fill-opacity: 1;" class="fills"/></g></svg>