<svg width="131" xmlns="http://www.w3.org/2000/svg" height="124" fill="none"><g style="fill: rgb(0, 0, 0);"><g style="fill: rgb(0, 0, 0);"><defs><mask width="43.362" maskUnits="userSpaceOnUse" height="99.711" x=".078" id="a" data-old-y="8.802" data-old-width="43.362" data-old-x=".078" y="8.802" data-old-height="99.711"><polygon points="0 4.82 23.84 4.82 23.84 59.42 0 59.42 0 4.82" style="fill: rgb(255, 255, 255); fill-rule: evenodd;" class="svg-mask-wrapper" transform="matrix(1.818867, 0.000000, 0.000000, 1.826215, 0.077936, 0.000000)"/></mask></defs><path d="M36.455,16.144C38.947,13.295,41.239,10.884,43.422,8.839C6.571,7.652,17.303,34.406,5.225,61.562C-8.598,92.863,6.862,104.788,29.889,108.514C26.674,104.666,24.050,100.357,22.104,95.730C7.244,76.865,13.265,42.478,36.455,16.144Z" style="mask: url(&quot;#a&quot;); fill: rgb(139, 145, 243);" class="fills"/></g><path d="M125.125,49.490C120.773,60.921,114.477,71.506,106.518,80.773C100.137,88.560,92.494,95.209,83.910,100.442C73.940,106.785,62.353,110.090,50.552,109.956C43.661,110.019,36.777,109.536,29.962,108.514C33.746,113.052,38.437,116.741,43.731,119.343C77.052,135.523,79.144,105.482,114.394,90.233C134.183,81.668,134.256,64.940,125.125,49.490Z" style="fill: rgb(139, 145, 243); fill-opacity: 1;" class="fills"/><path d="M83.910,18.262C88.733,19.110,93.382,20.764,97.660,23.156C108.869,29.484,118.313,38.540,125.125,49.490C131.127,32.507,128.326,19.175,115.212,16.765C100.770,14.117,89.493,13.258,78.653,5.661C65.303,-3.652,53.589,-0.621,43.440,8.857L45.641,8.948C59.719,9.789,73.178,12.601,83.910,18.262Z" style="fill: rgb(139, 145, 243); fill-opacity: 1;" class="fills"/><path d="M36.455,16.144C13.265,42.478,7.244,76.865,22.177,95.730C15.173,79.127,16.366,60.182,25.397,44.596C37.965,23.558,63.193,14.427,83.910,18.262C73.178,12.564,59.719,9.825,45.713,8.985L43.512,8.875C41.257,10.957,38.965,13.295,36.455,16.144Z" style="fill: rgb(139, 145, 243);" class="fills"/><path d="M97.660,23.120C93.379,20.740,88.731,19.098,83.910,18.262C98.024,25.713,107.391,38.351,107.391,58.329C107.225,75.468,98.374,91.341,83.910,100.442C92.498,95.215,100.142,88.564,106.518,80.773C114.477,71.506,120.773,60.921,125.125,49.490C118.318,38.526,108.873,29.458,97.660,23.120Z" style="fill: rgb(139, 145, 243);" class="fills"/><path d="M83.910,18.262C63.193,14.427,37.965,23.558,25.397,44.505C16.328,60.112,15.134,79.103,22.177,95.730C24.115,100.361,26.740,104.671,29.962,108.514C36.777,109.536,43.661,110.019,50.552,109.956C62.353,110.090,73.940,106.785,83.910,100.442C98.377,91.343,107.228,75.469,107.391,58.329C107.391,38.351,98.024,25.713,83.910,18.262ZM81.581,90.946C65.630,101.233,44.398,96.646,34.073,80.682C23.778,64.739,28.871,44.158,44.313,33.201C61.592,20.874,83.746,25.731,91.822,43.464C99.697,60.740,97.533,80.700,81.581,90.946Z" style="fill: rgb(139, 145, 243);" class="fills"/></g></svg>