<svg width="190.5" xmlns="http://www.w3.org/2000/svg" height="190.6" fill="none"><g style="fill: rgb(0, 0, 0);"><path d="M190.500,95.300C190.500,42.600,147.900,0.000,95.300,0.000C42.700,0.000,0.000,42.600,0.000,95.300C0.000,148.000,42.600,190.600,95.300,190.600C148.000,190.600,190.500,147.900,190.500,95.300ZL190.500,95.300ZM94.700,23.300L94.700,23.300ZL94.700,23.300ZC135.400,23.300,168.400,56.900,168.200,98.300L149.400,98.300C149.400,67.300,125.100,42.100,94.600,42.100C64.200,42.100,39.800,67.200,39.800,98.300L21.000,98.300C21.000,56.900,54.000,23.300,94.700,23.300ZM116.700,99.900L116.700,99.900ZC108.500,101.200,100.800,95.700,99.500,87.500C98.200,79.300,103.700,71.600,111.900,70.300C120.100,69.000,127.800,74.500,129.100,82.700C130.400,90.900,124.900,98.600,116.700,99.900ZM77.500,99.900L77.500,99.900ZC69.400,101.200,61.700,95.700,60.300,87.500C59.000,79.300,64.500,71.600,72.700,70.300C80.900,69.000,88.600,74.500,89.900,82.700C91.200,90.900,85.700,98.600,77.500,99.900Z" style="fill: rgb(139, 145, 243); fill-opacity: 1;" class="fills" xml:space="preserve"/></g></svg>